<?xml version="1.0" standalone="no"?>
<!DOCTYPE svg PUBLIC "-//W3C//DTD SVG 20010904//EN"
 "http://www.w3.org/TR/2001/REC-SVG-20010904/DTD/svg10.dtd">
<svg version="1.0" xmlns="http://www.w3.org/2000/svg"
 width="700.000000pt" height="700.000000pt" viewBox="0 0 700.000000 700.000000"
 preserveAspectRatio="xMidYMid meet">
<metadata>
Created by potrace 1.14, written by Peter Selinger 2001-2017
</metadata>
<g transform="translate(0.000000,700.000000) scale(0.100000,-0.100000)"
fill="#000000" stroke="none">
<path d="M3300 6977 c-3 -3 -51 -7 -107 -11 -57 -4 -115 -8 -130 -11 -203 -32
-286 -48 -433 -85 -334 -84 -678 -233 -980 -422 -459 -288 -847 -684 -1134
-1155 -63 -103 -181 -335 -221 -433 -14 -36 -30 -74 -35 -85 -7 -17 -39 -104
-70 -195 -5 -14 -22 -72 -39 -130 -61 -219 -94 -397 -118 -635 -16 -157 -9
-614 11 -735 2 -14 10 -65 17 -115 7 -49 13 -92 14 -95 2 -6 16 -79 20 -100
12 -63 72 -278 103 -371 178 -523 446 -959 823 -1339 192 -194 326 -305 532
-444 156 -104 234 -150 394 -230 267 -134 576 -240 873 -300 97 -20 116 -23
265 -42 27 -3 61 -8 75 -11 14 -2 140 -5 280 -8 230 -3 299 0 480 20 113 13
125 15 150 20 14 2 41 7 60 10 161 26 458 113 657 191 497 196 992 546 1334
944 35 41 67 77 70 80 11 10 156 207 196 265 207 307 379 684 476 1045 23 83
56 230 62 275 3 22 8 50 11 63 8 37 25 171 32 257 14 166 7 631 -12 722 -3 12
-7 48 -11 80 -3 32 -8 67 -10 78 -3 11 -7 32 -9 48 -3 15 -7 35 -10 45 -3 9
-7 33 -10 52 -3 19 -13 62 -22 95 -8 33 -17 67 -19 75 -11 51 -65 228 -84 275
-5 11 -28 70 -51 130 -45 115 -177 388 -210 436 -11 15 -20 30 -20 34 0 8
-141 225 -185 284 -69 91 -81 107 -154 194 -141 169 -346 366 -536 514 -81 63
-327 229 -365 246 -8 4 -31 17 -50 29 -113 70 -538 259 -614 274 -11 2 -47 12
-80 23 -60 20 -273 75 -331 86 -16 3 -46 8 -65 11 -19 2 -57 9 -85 14 -27 5
-75 12 -105 15 -30 3 -68 8 -85 10 -41 7 -539 17 -545 12z m390 -521 c58 -4
119 -8 135 -11 153 -21 264 -40 335 -57 47 -11 95 -22 107 -24 83 -16 370
-123 508 -189 139 -67 372 -204 445 -262 8 -6 38 -28 65 -49 313 -232 619
-584 807 -929 169 -310 282 -635 332 -960 14 -93 17 -122 31 -260 7 -68 7
-345 1 -425 -13 -152 -35 -306 -61 -420 -3 -14 -7 -34 -10 -45 -56 -257 -189
-588 -333 -830 -412 -693 -1081 -1188 -1856 -1374 -124 -30 -154 -36 -241 -47
l-50 -6 3 649 2 649 98 50 c119 60 389 210 480 265 37 23 82 50 100 60 97 56
447 286 627 412 53 37 241 175 269 198 6 5 83 66 171 135 161 128 419 348 465
398 l24 27 -31 27 c-70 62 -340 296 -358 311 -11 9 -43 34 -70 56 -28 22 -59
48 -70 57 -11 9 -81 62 -155 117 -74 55 -139 104 -145 109 -140 112 -832 562
-865 562 -6 0 -10 5 -10 10 0 6 -4 10 -9 10 -6 0 -36 15 -68 34 -649 376
-1380 676 -2068 850 -145 37 -503 110 -590 120 -55 7 -96 13 -152 22 l-36 5
39 35 c77 69 271 211 379 279 327 205 730 355 1100 410 61 9 124 18 140 20 17
3 86 8 155 11 69 4 126 7 127 8 3 2 132 -2 233 -8z m-2450 -1271 c47 -3 99 -8
115 -10 17 -2 50 -6 75 -8 52 -6 124 -16 160 -22 14 -3 41 -7 60 -10 33 -5
129 -22 175 -30 84 -15 345 -75 430 -99 6 -2 24 -6 40 -10 74 -19 402 -120
440 -136 11 -5 88 -33 172 -64 83 -31 222 -86 307 -122 l156 -67 0 -2034 0
-2034 -77 6 c-134 9 -294 31 -403 55 -25 6 -54 12 -65 15 -50 10 -182 48 -267
76 -874 291 -1582 1001 -1870 1874 -63 192 -118 446 -133 615 -3 36 -8 85 -10
110 -7 64 -7 342 0 425 11 140 21 216 46 345 71 363 200 692 393 1003 81 131
87 137 134 132 20 -2 75 -6 122 -10z m2815 -927 c228 -128 419 -246 666 -413
176 -119 416 -293 425 -307 3 -4 -274 -8 -615 -8 l-621 0 0 406 0 406 33 -20
c17 -11 68 -40 112 -64z m1090 -980 c12 -12 -472 -348 -740 -515 -157 -98
-448 -267 -479 -279 -14 -6 -16 33 -16 394 l0 401 23 3 c33 5 1208 1 1212 -4z"/>
<path d="M1725 4530 c-109 -23 -177 -47 -260 -90 -265 -136 -451 -376 -522
-672 -26 -107 -23 -346 5 -450 77 -286 258 -516 511 -647 339 -176 749 -144
1050 82 146 109 279 285 342 452 18 50 28 83 35 115 4 19 8 37 9 40 1 3 5 32
10 65 49 356 -114 729 -411 941 -82 59 -228 126 -334 154 -115 30 -320 35
-435 10z m340 -243 c11 -3 40 -10 65 -17 106 -28 240 -111 326 -201 134 -141
201 -304 208 -508 6 -152 -56 -336 -155 -461 -55 -70 -62 -78 -132 -134 -239
-192 -583 -211 -850 -49 -86 52 -214 184 -257 263 -75 138 -99 238 -95 389 4
174 49 306 149 438 102 134 287 252 441 279 16 3 31 7 33 9 5 5 244 -1 267 -8z"/>
<path d="M1811 4044 c-90 -21 -181 -72 -246 -138 -241 -245 -174 -652 132
-804 80 -40 142 -53 239 -51 368 8 597 388 438 725 -29 62 -108 152 -170 195
-105 72 -268 102 -393 73z"/>
</g>
</svg>
